<?xml version="1.0" encoding="UTF-8" standalone="no"?>
<!-- Created with Inkscape (http://www.inkscape.org/) -->

<svg
   xmlns:dc="http://purl.org/dc/elements/1.1/"
   xmlns:cc="http://creativecommons.org/ns#"
   xmlns:rdf="http://www.w3.org/1999/02/22-rdf-syntax-ns#"
   xmlns:svg="http://www.w3.org/2000/svg"
   xmlns="http://www.w3.org/2000/svg"
   xmlns:sodipodi="http://sodipodi.sourceforge.net/DTD/sodipodi-0.dtd"
   xmlns:inkscape="http://www.inkscape.org/namespaces/inkscape"
   width="100mm"
   height="47.938mm"
   viewBox="0 0 100 47.938"
   version="1.1"
   id="svg1063"
   inkscape:version="0.92.3 (unknown)"
   sodipodi:docname="protestswhite.svg">
  <defs
     id="defs1057" />
  <sodipodi:namedview
     id="base"
     pagecolor="#ffffff"
     bordercolor="#666666"
     borderopacity="1.0"
     inkscape:pageopacity="0.0"
     inkscape:pageshadow="2"
     inkscape:zoom="0.7"
     inkscape:cx="-72.442439"
     inkscape:cy="5.4305932"
     inkscape:document-units="mm"
     inkscape:current-layer="layer1"
     showgrid="false"
     inkscape:snap-page="true"
     inkscape:window-width="1311"
     inkscape:window-height="744"
     inkscape:window-x="55"
     inkscape:window-y="24"
     inkscape:window-maximized="1"
     width="228mm"
     inkscape:snap-bbox="true"
     inkscape:snap-bbox-edge-midpoints="true"
     inkscape:bbox-nodes="true"
     inkscape:snap-bbox-midpoints="true" />
  <metadata
     id="metadata1060">
    <rdf:RDF>
      <cc:Work
         rdf:about="">
        <dc:format>image/svg+xml</dc:format>
        <dc:type
           rdf:resource="http://purl.org/dc/dcmitype/StillImage" />
        <dc:title />
      </cc:Work>
    </rdf:RDF>
  </metadata>
  <g
     inkscape:label="Layer 1"
     inkscape:groupmode="layer"
     id="layer1"
     transform="translate(0,-249.062)">
    <path
       style="fill:#ffffff;fill-opacity:1;fill-rule:evenodd;stroke:none;stroke-width:0.29775667px;stroke-linecap:butt;stroke-linejoin:miter;stroke-opacity:1"
       d="m 0.35420556,249.062 c 2.27686794,2.35701 -1.41921606,1.99734 -0.033761,6.71117 1.79216694,0.61875 4.01017724,1.31785 7.60272624,1.0055 0,-0.002 0.01125,-0.005 0.01238,-0.007 1.430807,0.91619 2.6423902,1.26299 5.3311492,1.03343 l 1.948705,-7.14734 c -1.873419,-0.56257 -6.8262152,-1.11338 -7.6218582,-0.54783 z m 67.70362244,1.68885 -0.27224,0.0518 0.03715,0.27972 c -0.609718,-0.0421 -1.218662,-0.0707 -1.830755,-0.0419 -0.565957,0.0267 -1.130109,0.10569 -1.682446,0.22738 -0.329511,0.0727 -0.660711,0.14537 -0.987968,0.23205 -0.327487,0.0867 -0.651033,0.18778 -0.963665,0.31462 -0.491115,0.19941 -0.98448,0.39781 -1.425405,0.70194 -0.319383,0.2201 -0.551211,0.53059 -0.794405,0.8229 -0.242633,0.29097 -0.479974,0.61264 -0.587337,0.97527 -0.05514,0.18705 -0.111408,0.42991 0.0799,0.56702 0.186926,0.13322 0.437888,0.27952 0.418643,0.54492 -0.02138,0.28956 -0.289675,0.48899 -0.499558,0.66413 -0.377678,0.31422 -0.744887,0.71654 -0.764133,1.23233 -0.02025,0.53542 0.38837,1.00854 0.700776,1.33292 0.312518,0.3244 0.513173,0.65686 0.759519,0.91246 0.246458,0.25556 0.259513,0.55369 0.393096,0.82348 0.0799,0.16151 0.195477,0.29248 0.266375,0.46176 0.132234,0.31437 0.244208,0.64472 0.336715,0.97585 0.101279,0.36082 0.323546,0.77055 0.655981,0.86477 0.137299,0.039 0.01461,-0.34143 -0.109165,-0.42221 -0.162053,-0.10591 -0.384879,-0.28503 -0.279093,-0.50886 0.168581,-0.35615 0.606242,-0.44197 0.919436,-0.63564 0.329171,-0.20366 0.757828,-0.34246 0.944417,-0.69728 0.11839,-0.22528 -0.151138,-0.43692 -0.343692,-0.50422 -0.168468,-0.0585 -0.383078,-0.1206 -0.175106,-0.30706 0.185573,-0.16633 0.436309,-0.22429 0.665885,-0.30182 0.836046,-0.28189 1.704387,-0.47036 2.561819,-0.68333 0.895678,-0.22229 1.823891,-0.19334 2.739725,-0.15993 l 0.893777,6.45934 -0.02702,0.0971 0.07541,0.25066 0.116363,0.83918 0.06413,0.0593 0.06865,-0.006 0.271555,1.1666 c -0.06189,-0.009 -0.126492,-0.0173 -0.212921,-0.0268 -0.145174,-0.0155 -0.228341,-0.0235 -0.302952,-0.0233 -0.07426,2.9e-4 -0.138197,0.0101 -0.241958,0.0261 -0.307114,0.0489 -0.422467,0.10408 -0.667012,0.32335 -0.20707,0.18565 -0.279207,0.27472 -0.305877,0.37859 -0.01125,0.0307 -0.05853,0.1104 -0.110287,0.17447 -0.217085,0.26735 -0.259738,0.47141 -0.233179,1.116 0.02026,0.49145 0.06414,0.69826 0.209884,1.01948 0.100158,0.22041 0.12019,0.27857 0.136733,0.39604 0.01801,0.1311 0.08215,0.23547 0.218662,0.36115 l 0.0484,0.0453 -1.237017,0.48616 c -0.266601,0.10477 -0.351906,-0.0155 -0.653057,0.21112 0,-0.016 -2.25e-4,-0.0308 0,-0.0477 0,0 -0.136508,0.006 -0.287861,0.0128 0.01801,-0.18135 -0.0799,-0.53831 -0.01125,-0.67518 0.144499,-0.26155 0.558064,-0.135 0.353583,-0.99912 -0.158791,-0.671 -0.425607,-1.30702 -0.878133,-1.55507 -0.0259,-0.0609 -0.05176,-0.12021 -0.08103,-0.17623 0.0709,-0.071 0.119179,-0.18405 0.119179,-0.3117 0,-0.18812 -0.128182,-0.47107 -0.315215,-0.46758 -0.02702,6e-4 -0.05515,0.007 -0.08439,0.0204 -0.117717,0.054 0.222376,0.31273 0.04615,0.41058 -0.16678,-0.18371 -0.36811,-0.2931 -0.5978,-0.2931 -0.54716,0 -1.283607,0.7486 -1.610305,1.56263 -0.447678,0.18358 -0.827493,0.52289 -1.00384,0.94097 -0.17072,0.40494 -0.166556,1.11008 -0.03827,1.7086 -0.174549,-0.0586 -0.387246,-0.12586 -0.794968,-0.25064 l -0.577434,-0.17738 -0.140788,-0.17156 c -0.07766,-0.0944 -0.246567,-0.28173 -0.374523,-0.4164 l -0.230814,-0.24541 v -0.22504 -0.22215 l 0.106922,-0.22565 c 0.152264,-0.31322 0.201105,-0.49449 0.21112,-0.79964 0.01125,-0.20587 0,-0.25635 -0.02473,-0.2838 -0.02474,-0.0249 -0.03827,-0.11336 -0.05401,-0.3437 -0.02927,-0.44854 -0.08779,-0.58906 -0.368674,-0.88977 -0.128183,-0.13699 -0.174095,-0.16451 -0.602528,-0.35185 l -0.180287,-0.0791 -0.458929,0.0116 c -0.509572,0.0113 -0.636965,0.0335 -0.833343,0.15179 -0.245897,0.14819 -0.459269,0.38845 -0.555376,0.60947 -0.305541,0.13115 -0.613893,0.35047 -0.99326,0.69613 -0.311504,0.28376 -0.507883,0.98058 -0.379701,1.34803 0.0484,0.14022 0.06526,0.35039 0.03603,0.467 -0.03939,0.15825 -2.99e-4,0.26492 0.156428,0.42163 0.115464,0.11543 0.255125,0.20994 0.30993,0.20994 0.05516,0 0.246796,0.14289 0.426858,0.31753 0.266825,0.25883 0.327484,0.37748 0.327484,0.63971 0,0.0846 -0.01125,0.16358 -0.0225,0.2396 -0.08891,0.06 -0.190417,0.12455 -0.317022,0.20064 -0.515087,0.30955 -0.660597,0.40541 -0.779888,0.51526 -0.104644,0.0962 -0.15924,0.22046 -0.226762,0.57806 -0.50901,0.43276 -0.682093,1.20112 -0.522739,2.35355 0.212357,1.53671 0.166667,1.95534 -0.285622,2.63678 -0.322308,0.48553 -0.325347,0.67245 -0.01802,1.09157 l 0.169818,0.23205 -0.355282,1.63126 c -0.01125,0.0504 -0.02025,0.10128 -0.03151,0.1518 h 0.251185 10.062129 v 2.40124 c 0.0934,-0.23336 0.208307,-0.45505 0.347745,-0.66299 0.434502,-0.64455 1.014072,-1.13356 1.738255,-1.46669 0.731495,-0.33313 1.535354,-0.49955 2.411689,-0.49955 0.984931,0 1.882758,0.22441 2.693819,0.67344 0.482574,0.26283 0.910331,0.60945 1.285194,1.03634 v -1.48182 h 11.645654 c -0.05965,-0.24874 -0.199643,-0.45857 -0.305878,-0.67868 0.03602,-0.0512 0.104655,-0.0805 0.114001,-0.1419 0.01125,-0.059 -0.0484,-0.12344 -0.05965,-0.18902 -0.03487,-0.19325 -0.03715,-0.43335 -0.05064,-0.68506 0.03939,-0.37511 0.11749,-0.73232 0.241393,-1.09506 0.117828,-0.34455 0.297113,-0.93333 0.398386,-1.3085 0.09679,-0.35694 0.167017,-0.53695 0.214609,-0.53621 0.06077,8.8e-4 0.0844,0.30054 0.07426,0.9049 -0.01125,0.61646 -0.05176,0.80878 -0.28967,1.33933 -0.289674,0.64593 -0.303965,0.99441 -0.04952,1.20557 0.150351,0.12468 0.14586,0.5031 0,1.18463 h 0.440811 v 1.97322 c 0.04502,-0.0801 0.0934,-0.15834 0.144838,-0.23496 0.434507,-0.64455 1.013403,-1.13356 1.737698,-1.46669 0.731383,-0.33313 1.535467,-0.49955 2.411687,-0.49955 0.03939,0 0.07654,0.002 0.115701,0.003 -0.09228,-0.36717 -0.183448,-0.74221 -0.20348,-0.83395 -0.03038,-0.1379 0.05628,-0.21156 0.466357,-0.39487 0.207746,-0.0928 0.399623,-0.16062 0.493704,-0.17738 0.03151,-0.006 0.05176,-0.006 0.05852,10e-4 0.02702,0.0268 0.0484,0.15228 0.0484,0.27856 0,0.25914 0.160703,0.42258 0.537368,0.54667 0.244095,0.0804 0.303852,0.18347 0.412339,0.9049 0.262663,0.095 0.518238,0.20837 0.764694,0.34486 0.811175,0.44175 1.469741,1.11507 1.976731,2.02033 l -2.291886,1.40155 c -0.268098,-0.52145 -0.619328,-0.92373 -1.053838,-1.20616 -0.434508,-0.28967 -0.908858,-0.43442 -1.423154,-0.43442 -0.362036,0 -0.69166,0.0689 -0.988647,0.20646 -0.289671,0.13759 -0.52105,0.33331 -0.694923,0.58679 -0.166554,0.24621 -0.250058,0.52867 -0.250058,0.84733 0,0.39107 0.126942,0.72392 0.380379,0.9991 0.253434,0.27522 0.572143,0.50725 0.956009,0.69555 0.391071,0.18829 0.923486,0.41271 1.597027,0.67344 0.955897,0.36934 1.730609,0.71682 2.324471,1.04273 0.59386,0.3259 1.10456,0.78236 1.53175,1.36898 0.42731,0.58661 0.64091,1.32878 0.64091,2.22678 0,0.94148 -0.23903,1.7633 -0.7171,2.46581 -0.3007,0.44883 -0.67218,0.83029 -1.11187,1.14624 0.01801,0.015 0.02362,0.0201 0.04388,0.0367 0.0889,0.14367 1.0995,0.0269 1.85339,-0.21401 0.37261,-0.11903 0.84167,-0.25877 1.04266,-0.31055 0.35641,-0.0917 0.36406,-0.10072 0.30127,-0.36405 -0.036,-0.14855 -0.0563,-0.40898 -0.0462,-0.57864 0.0214,-0.36826 0.22113,-2.21787 -0.13145,-3.16949 0.099,-0.55693 0.0585,-1.0287 0.11029,-2.2384 0.0259,-0.89389 0.32265,-2.5273 0.17972,-2.84033 0.29136,-0.85656 0.3213,-1.38891 0.55651,-2.01625 0.28235,-0.15076 0.41109,-0.27986 0.46061,-0.46292 0.0383,-0.13971 0.11288,-1.07366 0.16701,-2.07499 l 0.099,-1.82027 0.4838,-0.46584 c 0.26626,-0.25615 0.529041,-0.5541 0.583841,-0.6618 0.355061,-0.69782 -0.242291,-4.1551 -0.897941,-5.19852 -0.27796,-0.44249 -0.98617,-0.94987 -1.99822,-1.43121 -0.9936,-0.4726 -1.08576,-0.61769 -0.69087,-1.08693 0.25028,-0.29744 0.38758,-1.03419 0.21292,-1.14218 -0.0518,-0.0321 -0.0945,-0.20761 -0.0945,-0.39023 0,-0.7309 -0.47288,-1.34745 -1.12763,-1.47017 -0.41425,-0.0777 -1.170166,0.0788 -1.452185,0.30067 -0.414929,0.32643 -0.571131,0.77788 -0.577432,1.67372 -0.01125,0.97008 0.11535,1.45793 0.427418,1.70337 0.226652,0.1783 0.227665,0.18309 0.06189,0.30765 -0.09227,0.0695 -0.339977,0.21451 -0.549636,0.32217 -0.498429,0.25618 -0.606017,0.38451 -0.978742,1.16951 l -0.312854,0.65831 -0.249499,-0.3396 c -0.254673,-0.34631 -0.295073,-0.36408 -1.324232,-0.59844 -0.553912,-0.12613 -0.829855,-0.36644 -0.888037,-0.77288 -0.04727,-0.33203 0.08439,-0.51144 0.54547,-0.7409 0.263001,-0.1309 0.582722,-0.66167 0.582722,-0.96829 0,-0.34617 -0.230704,-1.13858 -0.441374,-1.51553 -0.106922,-0.19055 -0.340203,-0.46385 -0.519363,-0.60773 -0.296199,-0.23797 -0.678604,-0.31833 -1.080475,-0.24717 -0.02702,-0.0706 -0.05401,-0.14127 -0.07654,-0.21633 -0.0968,-0.32363 -0.111408,-0.6776 -0.14945,-0.98167 -0.01349,-0.11006 -0.06189,-0.21466 -0.07427,-0.32334 0,-0.0367 0.01125,-0.083 0.01125,-0.11748 -0.01125,-0.1278 -0.08102,-0.32395 0.04163,-0.39487 -0.03603,-0.31679 0.444526,-0.95514 -0.0799,-1.0538 v -7.48781 H 76.833948 v 7.50383 c -0.21022,0.26464 -0.01125,0.70326 -0.100158,1.02703 0.04163,0.14111 0.03715,0.30961 0.01125,0.45129 0.02362,0.0226 0.04388,0.0487 0.05401,0.0855 -0.132119,0.48397 -0.335025,0.97145 -0.590259,1.37246 -0.03375,0.0842 -0.07314,0.16322 -0.111408,0.24251 -0.266266,0.0912 -0.474237,0.25052 -0.772349,0.56644 -0.384993,0.40804 -0.579232,0.99546 -0.631,1.90925 -0.03939,0.70283 -0.03263,0.74412 0.176233,0.95259 0.143937,0.14395 0.312856,0.21863 0.497193,0.2204 0.02814,2.7e-4 0.05853,0.006 0.09003,0.009 0.102401,0.0708 0.201555,0.14414 0.289671,0.20122 0.235319,0.15242 0.478062,0.27048 0.707188,0.38034 -0.05628,0.0842 -0.139657,0.18249 -0.257149,0.29717 -0.29091,0.28407 -0.338401,0.38176 -0.338401,0.69322 0,0.25568 -0.07654,0.48563 -0.257712,0.78045 -0.08102,0.13217 -0.167006,0.33118 -0.252985,0.57108 -0.08891,-0.26863 -0.147876,-0.45453 -0.289559,-0.87291 -0.30813,-0.91013 -0.365074,-1.11067 -0.45128,-1.59928 -0.04051,-0.23118 -0.118164,-0.37899 -0.247693,-0.46583 -0.09227,-0.0618 -0.971655,-0.38636 -1.797007,-0.66414 -0.654971,-0.2204 -0.920787,-0.32465 -1.129431,-0.47396 l 0.09003,-0.082 0.328047,-0.68216 -0.04952,-0.78454 -0.178034,-0.20353 v -0.0407 c 0.01237,-0.0464 0.03038,-0.10117 0.03827,-0.13899 0.03489,-0.17011 0.03375,-0.18418 -0.01801,-0.44256 -0.02926,-0.14653 -0.06978,-0.2985 -0.09003,-0.33789 -0.02026,-0.0394 -0.03827,-0.0937 -0.03827,-0.12271 0,-0.0295 -0.0315,-0.0879 -0.06641,-0.14073 l -0.02026,-0.14307 -0.08554,0.008 c -0.03488,-0.0415 -0.08891,-0.10782 -0.178483,-0.22738 0,-0.005 -0.01125,-0.008 -0.01125,-0.0134 l -0.250735,-0.61994 -0.196503,-1.05553 -0.04501,-0.48501 0.285522,-0.59958 0.06413,-0.61588 c 0,0 -0.180286,-0.42983 -0.385555,-0.4821 -0.171059,-0.0435 -0.40705,0.0924 -0.571693,0.20645 l -1.912669,-13.52298 z m -52.82273,0.0349 -3.926674,14.08295 h -0.0709 l -0.06865,0.16575 0.01125,0.2146 -0.03826,0.214 -0.05852,0.11689 -0.05852,0.20529 -0.05852,0.21402 -0.09679,-0.26344 -0.04839,-0.0588 h -0.117488 c 0,0 -0.01801,0.12665 -0.01125,0.15643 0.01125,0.0294 0.02926,0.69322 0.02926,0.69322 l -0.02926,0.14597 0.05852,0.0582 v 0.15701 l -0.03038,0.10524 c -0.450378,-0.0607 -1.0518912,0.014 -1.2928352,0.19367 -0.19998,0.14907 -0.556951,0.7769 -0.556501,0.97875 1.12e-4,0.057 -0.08103,0.25793 -0.181524,0.44664 -0.238693,0.45069 -0.168582,0.99495 0.185576,1.44051 0.187375,0.23577 0.25006,0.40356 0.25006,0.67112 0,0.33719 -0.02363,0.37134 -0.429221,0.62343 -0.235992,0.14667 -0.447901,0.26692 -0.470972,0.26692 -0.02363,0 -0.250959,0.0952 -0.505407,0.2117 -0.254561,0.11642 -0.482788,0.21168 -0.507659,0.21168 -0.139547,0 -1.01543,0.45828 -1.10501,0.57807 -0.05852,0.078 -0.167007,0.3256 -0.241394,0.55015 -0.07427,0.22453 -0.262664,0.68163 -0.418641,1.01598 -0.765821,1.64126 -1.2542357,3.16182 -1.087004,3.38466 0.04277,0.0563 0.184899,0.34978 0.316456,0.6525 0.305766,0.70411 1.11739,2.12896 1.286984,2.25935 0.07202,0.055 0.179498,0.0815 0.240156,0.0582 0.214948,-0.0825 0.21461,0.14492 0,1.41958 -0.121653,0.70927 -0.227214,1.51413 -0.234979,1.78885 -0.01801,0.63177 0.127505,0.77446 0.721143,0.70368 l 0.398384,-0.0477 -0.02476,2.64608 c -0.02364,2.63006 0.02363,3.8277 0.223275,5.61028 0.05739,0.51231 0.105787,1.23523 0.108037,1.60684 0,0.6453 0.01463,0.68126 0.234416,0.80428 0.259175,0.14512 0.289673,0.27104 0.103536,0.4257 -0.06977,0.058 -0.126831,0.191 -0.126831,0.29601 0,0.22089 -0.108036,0.32388 -0.604216,0.57807 -0.436985,0.22386 -0.596338,0.44598 -0.411775,0.57283 0.207858,0.14286 1.333461,0.0137 2.159377,-0.24774 l 0.761771,-0.24135 0.02701,-0.41523 c 0.01463,-0.22819 0.08553,-0.48009 0.158228,-0.56004 0.07878,-0.0873 0.112538,-0.22259 0.08328,-0.33904 0,-0.0134 -0.01125,-0.13414 -0.01238,-0.17098 l 0.3780142,0.10465 c -0.01913,0.0857 -0.03826,0.2001 -0.02588,0.33614 0.09116,0.25341 0.06865,0.7197 0.02251,1.02238 0,-0.002 0.157441,0.0781 0.255911,0.12678 v -14.77673 h 4.812349 c 1.050092,0 1.984158,0.18107 2.802533,0.54318 0.818375,0.35485 1.459054,0.87638 1.922599,1.56438 0.20932,0.30752 0.369012,0.64302 0.483801,1.00377 v -3.11133 h 4.964161 c 0.09904,0 0.196941,0.003 0.294286,0.007 v -0.0692 l 0.11749,-0.006 c 0.06529,-0.003 0.116928,-0.0101 0.116928,-0.014 0,-0.003 0.09115,-0.54247 0.202342,-1.19801 l 0.204707,-1.19218 0.01125,-0.83513 c 0.01125,-0.82354 0.01125,-0.83826 -0.04615,-1.11077 -0.02926,-0.15191 -0.0709,-0.40381 -0.09567,-0.55945 -0.06977,-0.44359 -0.206844,-1.24785 -0.253547,-1.48995 -0.103523,-0.53969 -0.126943,-0.7023 -0.152939,-1.03692 -0.0259,-0.33661 -0.0349,-0.37125 -0.128519,-0.63854 -0.12818,-0.36541 -0.298564,-0.75999 -0.365185,-0.84035 -0.04952,-0.0592 -0.114902,-0.0806 -1.018357,-0.32509 -0.530279,-0.14352 -1.081264,-0.28837 -1.225313,-0.3216 -0.457691,-0.10556 -0.531517,-0.14786 -0.706625,-0.40418 -0.115915,-0.16965 -0.134483,-0.2812 -0.07878,-0.46932 0.02026,-0.068 0.04276,-0.1969 0.05176,-0.2867 0.01801,-0.17661 0.04051,-0.22916 0.193678,-0.45013 0.09115,-0.1325 0.102401,-0.15992 0.120415,-0.3216 0.03263,-0.28706 0.02702,-0.35582 -0.03602,-0.4478 -0.05513,-0.0816 -0.05513,-0.0822 -0.05176,-0.4664 0,-0.37938 0,-0.38817 -0.06077,-0.57865 -0.09792,-0.29168 -0.161381,-0.40639 -0.283822,-0.52689 -0.26829,-0.26396 -0.693796,-0.41381 -1.260199,-0.4449 -0.06753,-0.003 -0.11839,-0.007 -0.163968,-0.006 -0.136847,0.003 -0.220576,0.0432 -0.523977,0.18843 -0.273804,0.13092 -0.312405,0.1619 -0.480425,0.41464 -0.163181,0.24545 -0.203244,0.42854 -0.234416,1.05613 -0.01349,0.27866 -0.01689,0.29948 -0.06301,0.33554 -0.04388,0.0348 -0.0484,0.056 -0.0484,0.21052 -2.25e-4,0.24523 0.07426,0.54319 0.15879,0.63565 0.03603,0.0388 0.09227,0.0777 0.127955,0.085 0.06753,0.0135 0.111408,0.0847 0.111408,0.18551 0,0.0627 0.112537,0.36084 0.19424,0.51817 0.06301,0.12128 0.06641,0.14577 0.06301,0.31927 0,0.18041 -0.01125,0.18749 -0.07427,0.25647 -0.06301,0.0645 -0.522963,0.30438 -1.070574,0.5676 l -0.108043,-0.29718 -0.274479,-0.21401 -0.02814,-0.23321 -0.166331,-0.22563 -0.08327,-0.1419 c 0.212134,0.0524 0.508671,0.0932 0.792042,-0.008 0.495053,-0.17605 0.142811,-0.61652 0.06528,-0.90258 -0.03489,-0.12762 -0.146073,-0.12981 -0.269302,-0.0913 l 0.06977,-0.16342 0.05853,-0.4978 -0.05853,-0.7409 -0.137184,-0.42861 -0.331538,-0.44955 -0.320957,-0.13665 -0.458818,-0.0675 -0.302503,-0.0983 -0.312292,0.0483 c -0.636626,0.16523 -0.621321,0.19798 -1.142711,0.93631 l -0.01689,0.0884 -0.126829,0.25414 -0.185464,0.22449 -0.03038,0.12619 0.03939,0.21518 0.01125,0.23379 -0.03827,0.0686 -0.118051,0.20412 0.01125,0.2838 0.05853,0.2047 0.106921,0.49724 -0.0484,0.29252 0.01125,0.12677 0.136618,0.10759 c 0,0 0.02926,-0.004 0.07654,-0.0123 l 0.07878,-0.17329 -0.0968,0.21458 -0.156991,-0.029 -0.144837,0.0681 -0.225638,-0.0971 c 0,0 -0.01914,-0.12693 -0.0484,-0.13666 -0.02926,-0.0101 -0.185577,-0.0299 -0.225076,-0.0101 -0.03827,0.02 -0.214612,0.0872 -0.214612,0.0872 l -0.116212,-0.18494 -0.244319,-0.17562 c 0,0 -0.156428,-0.0677 -0.156428,-0.0384 0,0.0288 -0.01801,-0.10703 -0.01801,-0.10703 0,0 -0.01914,-0.17703 -0.0484,-0.20586 -0.02926,-0.0288 -0.439686,-0.57516 -0.439686,-0.57516 l -0.965914,-1.50157 -0.08667,-0.078 -0.165768,-0.36115 -0.134931,-0.35184 -0.05514,-0.0303 -0.03375,-0.24366 -0.11749,-0.12562 -0.08779,-0.25356 -0.0484,-0.4193 c 0,0 -0.07766,-0.30321 -0.108043,-0.33207 -0.02926,-0.0294 -0.08891,-0.24425 -0.08891,-0.24425 l 0.08891,-0.17505 -0.07878,-0.0402 -0.126153,0.0878 -0.03827,0.0878 -0.116364,-0.26344 -0.01238,-0.11689 z m 23.975197,1.84294 -0.768857,6e-4 v 0.3844 h -4.916447 v 6.62684 h 4.916447 v 4.91647 c -0.04727,0.0852 -0.09227,0.17622 -0.09227,0.17622 l 0.06413,0.61644 0.02702,0.057 v 2.12267 l -0.334914,0.82872 -0.172746,-0.0158 -0.201781,1.36608 -0.152377,0.17389 c -0.183664,-0.45942 -0.453639,-0.70031 -0.878132,-0.8107 0.01125,-0.20143 0.01125,-0.24867 -0.03151,-0.31579 -0.04615,-0.0785 -0.04728,-0.082 -0.01915,-0.36289 0.01576,-0.15615 0.02814,-0.36795 0.02702,-0.47222 0,-0.26683 -0.05401,-0.36804 -0.343691,-0.66064 -0.349993,-0.35329 -0.552224,-0.43121 -1.17591,-0.45304 l -0.346054,-0.0134 -0.198855,0.0762 c -0.109165,0.041 -0.223164,0.0785 -0.253547,0.085 -0.08215,0.0176 -0.298339,0.18874 -0.406601,0.3216 -0.20223,0.24833 -0.239254,0.37186 -0.265138,0.93921 -0.02702,0.58045 -0.02814,0.60302 -0.0709,0.6682 -0.05176,0.0796 -0.02927,0.37696 0.04952,0.65252 0.0484,0.17076 0.07766,0.23172 0.161042,0.33846 0.0574,0.073 0.118279,0.13085 0.139097,0.13085 0.04388,0 0.1058,0.0844 0.144722,0.19366 0.0225,0.0643 0.0225,0.11394 0,0.2838 -0.01577,0.11521 -0.04051,0.22006 -0.05852,0.24018 -0.03263,0.0379 -0.0844,0.0721 -0.635053,0.41988 -0.390844,0.24696 -0.573717,0.35111 -1.214846,0.68799 -0.415828,0.21849 -0.69481,0.36984 -0.878135,0.47745 -0.08215,-0.0252 -0.166556,-0.0507 -0.233177,-0.0779 -0.130096,-0.0532 -0.239371,-0.1126 -0.338515,-0.17447 0.871719,-0.28548 1.521736,-0.63132 1.264361,-0.78976 -0.48391,-0.29775 -0.893323,-0.98632 -0.744435,-1.04215 0.02927,-0.0113 0.0225,-0.11231 0,-0.24657 0.01125,-0.0447 0.02363,-0.0882 0.03038,-0.13317 0.100158,-0.64441 -0.28877,-1.7358 -0.775159,-2.17619 -0.142137,-0.12857 -0.308018,-0.16051 -0.831657,-0.16051 -0.696272,0 -0.92765,0.10218 -1.592862,0.7031 -0.448578,0.40527 -0.677479,1.03512 -0.519363,1.42946 0.02026,0.0496 0.03603,0.1183 0.04952,0.19134 -0.06641,0.54961 -0.164757,1.23521 -0.342566,1.42714 0.111408,0.3908 -0.449028,0.52864 -0.20707,0.73334 0.241956,0.20471 -0.114562,0.46525 1.299813,0.50246 0.03263,9e-4 0.06977,-0.001 0.104656,-0.002 -0.121768,0.0717 -0.281009,0.15485 -0.493142,0.26287 -0.620197,0.31566 -0.780677,0.46952 -0.919436,0.8828 -0.125142,0.37267 -0.122666,1.83222 0,2.97117 l 0.100159,0.89618 -0.311729,0.57631 c -0.346394,0.64146 -0.367438,0.772 -0.184341,1.12299 0.159693,0.30628 0.16037,0.60617 0,1.25325 -0.0709,0.29023 -0.171393,0.81303 -0.276841,1.39574 0.57203,0.0844 1.111313,0.24081 1.617282,0.46874 0.811174,0.35486 1.455679,0.87637 1.933739,1.56437 0.40784,0.58084 0.63978,1.2521 0.699536,2.01218 0.05514,-0.14002 0.112539,-0.27852 0.174546,-0.41523 0.550423,-1.19496 1.37983,-2.14745 2.48788,-2.85717 1.115249,-0.71697 2.483597,-1.0753 4.105831,-1.0753 1.060895,0 2.010155,0.15628 2.851375,0.46292 0,-0.10196 0.01125,-0.19444 0.01125,-0.29776 l 0.01688,-0.86653 0.13606,-0.13667 v 0.6531 h 0.04276 l -0.02927,0.71647 c 0.378014,0.15041 0.735884,0.32901 1.067647,0.54376 0.583622,0.37134 1.08633,0.81069 1.513298,1.31489 v -2.16225 h 11.301962 c 0.02024,-0.48028 0.08102,-0.93948 0.187825,-1.35736 0.1131,-0.44243 0.264576,-1.09061 0.336153,-1.43993 0.07202,-0.34928 0.209432,-1.01616 0.306439,-1.48238 0.19559,-0.93952 0.228789,-2.07263 0.08102,-2.76821 -0.118616,-0.55927 -0.426859,-1.17718 -0.657111,-1.31605 -0.09567,-0.058 -0.251071,-0.25586 -0.344928,-0.43967 -0.0934,-0.18379 -0.276168,-0.38502 -0.404685,-0.44663 -0.324112,-0.1554 -0.486614,-0.66219 -0.365865,-1.14218 0.141012,-0.55979 0.113554,-0.98433 -0.07541,-1.14566 -0.09115,-0.0777 -0.206732,-0.29516 -0.2576,-0.48385 -0.106922,-0.39715 -0.334802,-0.64208 -0.791479,-0.8514 -0.38972,-0.17856 -0.816688,-0.11074 -1.326598,0.2111 -0.406712,0.25684 -0.467821,0.36634 -0.627398,1.13229 -0.115803,0.55523 -0.114338,0.65616 0.02024,1.18753 0.0574,0.22814 0.141458,0.44671 0.241282,0.64728 -0.276392,-0.11052 -0.618509,-0.2687 -0.704826,-0.3344 -0.149563,-0.11376 -0.309593,-0.29505 -0.411214,-0.46583 -0.07426,-0.12434 -0.09567,-0.18269 -0.119741,-0.32392 -0.01576,-0.0948 -0.02363,-0.19753 -0.01689,-0.22913 0.01125,-0.0316 0.0574,-0.11821 0.112539,-0.19191 0.172519,-0.23071 0.188052,-0.27855 0.224401,-0.74265 l 0.0225,-0.29893 -0.05514,-0.0802 -0.0574,-0.082 v -0.38382 c -0.01125,-0.86361 -0.01125,-0.85749 -0.0574,-0.93223 -0.05515,-0.0879 -0.535342,-0.55923 -0.609958,-0.59784 -0.05628,-0.0293 -0.286407,-0.0768 -0.486162,-0.10005 -0.05852,-0.007 -0.153615,-0.025 -0.214048,-0.0402 -0.04163,-0.0101 -0.08779,-0.0133 -0.137296,-0.0121 -0.148889,0.003 -0.332549,0.0599 -0.548397,0.16923 -0.05965,0.0301 -0.126043,0.0477 -0.18141,0.0477 -0.07314,0 -0.111408,0.0141 -0.229802,0.0942 -0.07766,0.0525 -0.234642,0.18863 -0.348871,0.30183 -0.180958,0.17923 -0.210781,0.21952 -0.23903,0.31113 -0.07202,0.23357 -0.09792,0.93302 -0.03939,1.0817 0.02702,0.0699 0.04051,0.16842 0.07202,0.52573 0.0135,0.15016 0.04501,0.40977 0.05965,0.4885 0.0135,0.0762 0.08891,0.17431 0.191876,0.24659 0.05965,0.0417 0.09115,0.0781 0.104679,0.12736 0.01125,0.0383 0.05176,0.12174 0.09453,0.18667 l 0.07426,0.1198 -0.01125,0.27159 c -0.01125,0.14998 -0.02479,0.30073 -0.03827,0.33381 -0.0135,0.0331 -0.102402,0.14508 -0.196493,0.24891 -0.09453,0.10387 -0.211907,0.25463 -0.26176,0.33672 -0.0574,0.0951 -0.116702,0.16584 -0.161608,0.19423 -0.0484,0.0305 -0.282243,0.13197 -0.523411,0.23496 -0.129757,-0.15374 -0.277519,-0.29091 -0.422243,-0.33149 -0.105788,-0.0442 -0.25501,-0.0744 -0.415829,-0.0971 0.1885,-0.012 0.392419,-0.0439 0.617046,-0.1041 1.001139,-0.26824 0.565729,-1.61397 0.154176,-2.50301 -0.06527,-0.24044 -0.189177,-0.47851 -0.354268,-0.68741 -0.01238,-0.0207 -0.06301,-0.11282 -0.06301,-0.11282 l -0.02363,0.0101 c -0.272903,-0.30154 -0.638203,-0.51575 -1.045591,-0.54375 -0.27538,-0.084 -0.968387,-0.20662 -1.549308,0.46757 -0.111408,0.15504 -0.139996,0.33744 -0.123229,0.5234 -0.02927,0.0493 -0.05852,0.10027 -0.0844,0.15353 -0.0574,0.0755 -0.138196,0.16663 -0.234981,0.22739 -0.146298,0.0329 -0.133132,0.14003 -0.06753,0.19366 0.05965,0.0483 0.0574,0.027 0.09452,0.1198 -0.01125,0.0199 -0.01125,0.0404 -0.01689,0.0604 -0.0225,0.003 -0.06753,0.0127 -0.06414,0.0297 0,0.0173 0.02927,0.0438 0.04051,0.0553 -2.26e-4,10e-4 -8.91e-4,0.002 -0.0012,0.003 0.06865,0.0843 0.140672,0.19035 0.129755,0.28147 -0.01689,0.13826 -0.183099,0.10702 -0.219336,0.0995 -2.27e-4,0.001 -8.93e-4,0.003 -0.0012,0.006 0,-0.002 -0.01125,-0.004 -0.01125,-0.007 -8.93e-4,-2.3e-4 -0.01125,-6e-4 -0.01125,-6e-4 l -0.02025,-0.008 c -0.02814,2.9e-4 -0.04615,0.0272 -0.02363,0.0453 0.02025,0.0159 0.03489,0.0415 0.0484,0.0611 -0.05965,0.56523 0.275044,0.49663 0.401874,0.72636 0.07541,0.13686 -0.02363,0.49382 -0.01125,0.67519 -0.151253,-0.007 -0.287871,-0.0128 -0.287871,-0.0128 0,0.0168 2.96e-4,0.0316 0,0.0477 -0.301156,-0.22663 -0.386456,-0.10634 -0.653057,-0.2111 l -1.670857,-0.65599 -1.063033,-1.06425 -0.177923,-0.45652 0.187263,-1.04738 h 0.179047 v -1.70687 l 0.185576,-0.79789 0.259288,-0.8578 -0.163969,-0.57691 c 0,0 -0.12323,-0.10714 -0.280895,-0.20296 v -4.75057 h 4.916445 v -6.62757 h -4.915566 z m 39.004983,13.66599 h 8.454064 c 0.01464,0.1249 0.04051,0.25263 0.06301,0.37569 0.01801,0.0995 0.01689,0.20325 0.05401,0.29542 0.0259,0.0636 0.09003,0.13686 0.131446,0.20937 0.06978,0.11864 0.116702,0.21677 0.189063,0.28844 -0.02702,0.51812 0.01463,0.97797 0.05628,1.43645 0.01801,0.18943 0.04615,0.37384 0.07426,0.55771 -0.348529,0.37139 -0.492916,0.79616 -0.432707,1.29338 0.04163,0.34636 0.04952,0.49272 0.04503,0.71008 -0.476035,0.11801 -0.839871,0.33734 -1.151489,0.5897 -0.02362,-0.0281 -0.05853,-0.0522 -0.09567,-0.0599 -0.02926,-0.007 -0.114664,-0.0167 -0.167445,-0.0169 -0.127178,-0.15525 -0.238581,-0.29835 -0.27224,-0.36115 -0.05064,-0.0955 -0.203582,-0.19567 -0.338953,-0.22273 -0.242644,-0.0485 -0.392993,-0.32298 -0.406611,-0.69613 0.07202,-0.13768 0.149111,-0.36052 0.143157,-0.44954 -0.01125,-0.0747 -0.04051,-0.13101 -0.08102,-0.18378 0.109165,-0.77439 0.09792,-0.80359 -0.05288,-0.91129 -0.01576,-0.0112 -0.03375,-0.0341 -0.05064,-0.0553 -0.03939,-0.10916 -0.0968,-0.21483 -0.166905,-0.31636 -0.02026,-0.0551 -0.03939,-0.11255 -0.05288,-0.16924 -0.171385,-0.68841 -0.556839,-0.97951 -1.320171,-0.99737 -0.58171,-0.0136 -1.022083,0.26346 -1.298588,0.81767 -0.175897,0.35239 -0.19119,0.46754 -0.140662,1.04971 0.05852,0.67359 0.122892,1.0058 0.298891,1.3213 0,0.15563 0.02362,0.33139 0,0.49781 -0.01125,0.0386 -0.03375,0.07 -0.03939,0.10995 -0.03375,0.19514 0.01125,0.38692 -0.173973,0.46931 -0.179836,-0.0275 -0.275843,0.19346 -0.352356,0.3309 -0.04051,-0.10455 -0.161605,-0.17254 -0.298351,-0.13898 -0.04388,-0.0988 -0.165769,-0.1169 -0.238467,-0.18494 -0.03827,0 -0.08553,0.0297 -0.11399,0.0681 -0.475146,-0.12505 -1.117512,-0.22014 -1.706863,-0.0925 -0.155314,-0.13264 -0.327385,-0.23146 -0.511158,-0.30823 0.212472,-0.60881 0.08553,-1.40942 -0.375079,-2.11977 -0.195827,-0.30208 -0.416851,-0.50319 -0.671739,-0.61471 0.05853,-0.15753 0.111408,-0.31698 0.153502,-0.51351 0.0225,-0.10545 0.05965,-0.18887 0.09567,-0.28844 0.0799,-0.22273 0.179609,-0.46579 0.294837,-0.6432 0.119965,-0.18412 0.234304,-0.35284 0.23499,-0.63332 0.01125,0.0101 0.0225,0.0143 0.03151,0.0145 0.01125,-0.0174 0.01577,-0.0326 0.02814,-0.043 0,0 0,5.9e-4 -0.01125,-0.003 0.04388,-0.11805 0.11929,-0.26163 0.170382,-0.41116 z m 9.452614,0.90083 c 5.97e-4,9e-4 0,0.002 0,0.003 0,0.007 -0.01125,0.0101 -0.01463,0.0145 0,-0.006 0.01125,-0.0101 0.01125,-0.0174 z m 0.523988,0.29659 c 0.01125,0.0558 0.01801,0.11163 0.02138,0.1704 0,0.0397 0.01125,0.0783 0.01125,0.11747 0,-0.0392 -0.01125,-0.0778 -0.01349,-0.11747 0,-0.0588 -0.01125,-0.11456 -0.01801,-0.1704 z m -76.531663,2.89673 0.390845,0.76766 0.01463,0.0244 0.45769,0.74148 0.103523,0.0896 c -0.282923,-0.10736 -1.039177,-0.52366 -1.20033,-0.67287 -0.245221,-0.22694 -0.241394,-0.25986 0.0754,-0.70018 0.06865,-0.0957 0.118278,-0.1715 0.157555,-0.25008 z m 26.227647,1.03692 0.333222,0.30357 c -0.114112,-0.045 -0.226536,-0.0892 -0.340201,-0.13259 0.01125,-0.0484 0.01125,-0.11142 0.01125,-0.17098 z m 6.296496,0.56992 c 0.07654,0.0379 0.159806,0.0691 0.247699,0.0953 -0.223726,-0.0197 -0.389271,-0.0408 -0.314545,-0.0913 0.02138,0 0.045,-0.002 0.06641,-0.004 z m 36.840428,0.5327 c 0,0.008 0,0.0165 0,0.0274 0,-0.0101 0,-0.0172 -0.01125,-0.025 2.24e-4,-8.9e-4 0,-0.001 0,-0.002 z m 7.01583,0.39081 c 3.04e-4,0.0164 0,0.0263 0,0.0448 0,0.46953 -0.143599,0.63536 -1.058981,1.22476 l -0.592626,0.3815 -0.08327,-0.64495 c 0,-2.9e-4 0.01125,-1e-5 0.01125,-5.9e-4 0.07426,-0.0131 0.174783,-0.0557 0.263451,-0.0815 0.255238,-0.0753 0.453316,-0.15648 0.625834,-0.26345 0.04952,-0.0313 0.1058,-0.0414 0.145952,-0.0674 0.184674,-0.12324 0.324784,-0.32235 0.494267,-0.46233 0.05965,-0.0493 0.126268,-0.0907 0.193688,-0.13086 z m -48.398851,0.27508 0.270428,0.59027 0.632802,0.55597 0.177359,1.06367 -0.04728,0.10522 c -0.199979,-0.49099 -0.687605,-1.26995 -0.885112,-1.39456 -0.03939,-0.27409 -0.07766,-0.56277 -0.09115,-0.67112 0,-0.0391 -0.02702,-0.13274 -0.0574,-0.24949 z m -25.01505,0.41581 0.08327,0.0489 -0.03603,0.13549 c -0.01461,-0.0668 -0.03151,-0.13108 -0.04728,-0.18435 z m 71.778622,0.1733 c -0.03939,0.0101 -0.07766,0.0199 -0.114012,0.0262 -1.12e-4,-0.001 -2.13e-4,-0.002 0,-0.003 0.03603,-0.006 0.07426,-0.0132 0.114012,-0.0227 z m -79.1835052,1.97671 c 0.02251,-0.0223 0.01351,0.0558 -0.01125,0.21635 -0.02813,0.18625 -0.109161,0.64337 -0.180286,1.01598 -0.167569,0.87434 -0.206957,0.93992 -0.381504,0.63564 -0.115239,-0.20069 -0.12019,-0.26153 -0.02926,-0.3373 0.0619,-0.0509 0.130206,-0.21489 0.152939,-0.36464 0.02251,-0.14974 0.14146,-0.501 0.264576,-0.78045 0.105787,-0.2407 0.161605,-0.3633 0.184338,-0.38558 z m 83.7963112,1.92321 c 0.03263,0.0159 0.07426,0.19035 0.09792,0.42628 0.03489,0.33382 0.01801,0.52225 -0.05064,0.58796 -0.05628,0.0532 -0.183439,0.12143 -0.283146,0.1512 l -0.182077,0.0547 0.17161,-0.57401 c 0.09454,-0.31593 0.199542,-0.60515 0.233177,-0.64262 0,-0.004 0.01125,-0.006 0.01349,-0.003 z m -11.472904,0.3786 h 5.95e-4 c -1.12e-4,2.1e-4 -5.95e-4,9e-4 -5.95e-4,10e-4 0.03263,0.5453 -0.03151,1.10474 -0.09904,1.71151 -0.01125,0.0927 -0.01577,0.18765 -0.02138,0.28207 -0.0225,0.0385 -0.04615,0.0842 -0.06753,0.11921 -0.166894,0.27486 -0.338852,0.49955 -0.382067,0.49955 -0.04275,0 -0.07766,-0.2521 -0.07766,-0.56061 0,-0.45765 0.05628,-0.6878 0.301828,-1.24919 0.149787,-0.34162 0.284495,-0.65446 0.346616,-0.80254 0,-2.9e-4 0,-8.9e-4 0,-10e-4 z m -38.701907,2.25178 0.01238,0.003 h -0.01576 z m 44.441342,0.53154 c 0.01125,0.0192 0.01801,0.0359 0.02814,0.0535 -0.01125,0.0187 -0.01577,0.0414 -0.02477,0.0605 0.01125,-0.0191 0.01464,-0.0417 0.02138,-0.0605 -0.01125,-0.0174 -0.01689,-0.0342 -0.02474,-0.0535 z m -47.849891,3.16134 c -1.050091,0 -1.911457,0.24611 -2.584997,0.73858 -0.666225,0.48521 -1.151376,1.13741 -1.45568,1.95577 -0.304074,0.81112 -0.456453,1.72729 -0.456453,2.74842 0,1.02113 0.152379,1.94057 0.456453,2.75891 0.304304,0.81835 0.789455,1.47377 1.45568,1.96624 0.67354,0.48522 1.534906,0.72811 2.584997,0.72811 1.050093,0 1.908305,-0.24289 2.574529,-0.72811 0.673653,-0.49247 1.162631,-1.14789 1.466707,-1.96624 0.304192,-0.81834 0.45657,-1.73778 0.45657,-2.75891 0,-1.02113 -0.152378,-1.9373 -0.45657,-2.74842 -0.304076,-0.81836 -0.793054,-1.47056 -1.466707,-1.95577 -0.666224,-0.49247 -1.524436,-0.73858 -2.574529,-0.73858 z m 32.443896,0 c -0.362148,0 -0.691085,0.0689 -0.988073,0.20645 -0.289672,0.13759 -0.521737,0.33331 -0.695607,0.58679 -0.166558,0.24623 -0.25006,0.52867 -0.25006,0.84733 0,0.39107 0.126943,0.72392 0.380379,0.99911 0.253435,0.27522 0.572253,0.50724 0.956133,0.69554 0.391057,0.1883 0.923363,0.41272 1.596913,0.67344 0.955897,0.36934 1.730609,0.71683 2.32446,1.04273 0.593876,0.3259 1.104572,0.78238 1.531867,1.36898 0.427194,0.5866 0.640801,1.32878 0.640801,2.22679 0,0.94147 -0.239029,1.76329 -0.716989,2.46579 -0.470746,0.70247 -1.111537,1.24245 -1.922699,1.61906 -0.150813,0.07 -0.305542,0.13144 -0.462306,0.18842 h 6.49479 v -12.68143 h -4.120251 l -2.292499,1.40155 c -0.268079,-0.52144 -0.619307,-0.92373 -1.053805,-1.20615 -0.434521,-0.28968 -0.908868,-0.43442 -1.423054,-0.43442 z m -46.6903,0.23902 v 3.8813 l 0.198966,0.19249 h 2.234329 c 0.731497,-0.029 1.303303,-0.22087 1.716092,-0.57574 0.412902,-0.35485 0.619408,-0.82217 0.619408,-1.40155 0,-0.63725 -0.231941,-1.14417 -0.695484,-1.52077 -0.463545,-0.38381 -1.085878,-0.57573 -1.868018,-0.57573 z m 20.100401,0 c 0.283036,0.37895 0.526116,0.79192 0.729248,1.23871 0.550425,1.19492 0.825804,2.5166 0.825804,3.96504 0,1.44844 -0.275379,2.77013 -0.825804,3.96506 -0.543108,1.19496 -1.37195,2.15069 -2.487312,2.86765 -0.412453,0.26419 -0.860804,0.47908 -1.344604,0.64495 h 7.670137 v -12.68143 z m 7.32645,0 v 12.68141 h 4.652992 v -12.68143 z m 30.912038,0 v 12.68141 h 6.861652 c -0.121643,-0.0416 -0.242405,-0.0858 -0.362258,-0.13434 -0.832782,-0.34037 -1.539183,-0.84724 -2.118641,-1.52077 -0.572142,-0.68075 -0.93743,-1.5064 -1.096783,-2.47685 l 2.737486,-0.69554 c 0.09452,0.91252 0.430671,1.60103 1.010129,2.06452 0.586547,0.46348 1.310853,0.69497 2.172669,0.69497 0.528578,0 0.985146,-0.0835 1.369013,-0.25007 0.383755,-0.1738 0.673313,-0.4091 0.868794,-0.70602 0.195477,-0.29691 0.29316,-0.62976 0.29316,-0.99911 0,-0.44179 -0.137746,-0.81854 -0.413013,-1.12996 -0.267954,-0.31139 -0.604555,-0.56836 -1.01014,-0.77115 -0.405476,-0.20277 -0.962752,-0.44568 -1.672541,-0.72811 -0.926975,-0.36937 -1.676816,-0.70982 -2.248845,-1.0212 -0.572132,-0.31866 -1.064272,-0.75992 -1.477173,-1.32478 -0.405475,-0.5649 -0.608258,-1.27834 -0.608258,-2.14014 0,-0.56391 0.08891,-1.07791 0.266255,-1.54286 z m -23.500179,0.0652 v 3.87841 h 6.941455 v 2.53092 h -6.941455 v 3.80222 h 6.722791 c -0.283817,-0.51336 -0.480084,-1.08827 -0.58497,-1.72722 l 2.737365,-0.69555 c 0.09452,0.91252 0.430796,1.60103 1.01014,2.0645 0.586548,0.46349 1.310854,0.69497 2.172659,0.69497 0.528702,0 0.985168,-0.0835 1.369024,-0.25006 0.383867,-0.17378 0.673324,-0.40909 0.868792,-0.70601 0.195591,-0.29692 0.293735,-0.62977 0.293735,-0.99912 0,-0.44179 -0.137757,-0.81854 -0.412902,-1.12996 -0.267963,-0.31138 -0.604564,-0.56835 -1.010151,-0.77113 -0.405587,-0.2028 -0.963438,-0.44571 -1.673215,-0.72813 -0.926975,-0.36937 -1.676702,-0.70983 -2.248846,-1.0212 -0.572018,-0.31866 -1.064372,-0.75991 -1.477165,-1.32479 -0.405586,-0.56488 -0.608268,-1.27831 -0.608268,-2.14013 0,-0.53766 0.08102,-1.03006 0.241959,-1.47772 z m -44.903656,0.0437 v 3.83479 h 2.074975 c 0.926977,0 1.604117,-0.15557 2.031424,-0.467 0.43451,-0.31139 0.65137,-0.77873 0.65137,-1.40155 0,-1.31081 -0.894003,-1.96624 -2.682794,-1.96624 z m 7.284021,3.38059 c -0.11479,0.35563 -0.274481,0.68534 -0.483914,0.98633 -0.463431,0.66624 -1.104221,1.17312 -1.922599,1.52075 -0.818376,0.34763 -1.75244,0.52166 -2.802533,0.52166 h -2.074975 v 6.16333 h 7.284021 z m 9.664307,0.72753 c -0.224625,0.35585 -0.501018,0.67516 -0.83278,0.95432 -0.449026,0.38385 -0.966814,0.67713 -1.55336,0.87991 l 4.142971,6.63031 h 2.851374 c -0.485376,-0.16587 -0.93575,-0.38076 -1.350906,-0.64494 -1.108049,-0.71696 -1.937567,-1.6727 -2.487875,-2.86766 -0.543222,-1.19493 -0.814775,-2.51662 -0.814775,-3.96505 0,-0.33605 0.01576,-0.66448 0.04502,-0.98689 z m -6.90544,2.10581 v 6.35873 h 5.510871 l -3.663786,-6.35873 h -0.890962 z m 42.312808,4.94206 v 1.41667 h 2.26403 c -0.121654,-0.0416 -0.243084,-0.0858 -0.362935,-0.13433 -0.731374,-0.29896 -1.365075,-0.72643 -1.901095,-1.28234 z"
       id="path8615-6-5-5"
       inkscape:connector-curvature="0"
       inkscape:export-xdpi="34.301914"
       inkscape:export-ydpi="34.301914" />
  </g>
</svg>
